# MagicaVoxel @ Ephtracy

# material
mtllib Wall.mtl
usemtl palette

# normals
vn -1 0 0
vn 1 0 0
vn 0 0 1
vn 0 0 -1
vn 0 -1 0
vn 0 1 0

# texcoords
vt 0.0683594 0.5
vt 0.0761719 0.5
vt 0.0996094 0.5
vt 0.103516 0.5
vt 0.107422 0.5
vt 0.876953 0.5

# verts
v -5 0 5
v -5 0 -5
v -5 1 4
v -5 1 -4
v -5 9 4
v -5 9 -4
v -5 11 4
v -5 11 -4
v -5 19 4
v -5 19 -4
v -5 20 5
v -5 20 -5
v 4 1 4
v 4 1 -4
v 4 9 4
v 4 9 -4
v 4 11 4
v 4 11 -4
v 4 19 4
v 4 19 -4
v -4 1 4
v -4 1 -4
v -4 9 4
v -4 9 -4
v -4 11 4
v -4 11 -4
v -4 19 4
v -4 19 -4
v 5 0 5
v 5 0 -5
v 5 1 4
v 5 1 -4
v 5 9 4
v 5 9 -4
v 5 11 4
v 5 11 -4
v 5 19 4
v 5 19 -4
v 5 20 5
v 5 20 -5
v -5 0 5
v -5 20 5
v -4 1 5
v -4 9 5
v -4 11 5
v -4 19 5
v 4 1 5
v 4 9 5
v 4 11 5
v 4 19 5
v 5 0 5
v 5 20 5
v -4 1 -4
v -4 9 -4
v -4 11 -4
v -4 19 -4
v 4 1 -4
v 4 9 -4
v 4 11 -4
v 4 19 -4
v -4 1 4
v -4 9 4
v -4 11 4
v -4 19 4
v 4 1 4
v 4 9 4
v 4 11 4
v 4 19 4
v -5 0 -5
v -5 20 -5
v -4 1 -5
v -4 9 -5
v -4 11 -5
v -4 19 -5
v 4 1 -5
v 4 9 -5
v 4 11 -5
v 4 19 -5
v 5 0 -5
v 5 20 -5
v -5 0 5
v 5 0 5
v -4 0 4
v 4 0 4
v -3 0 3
v 3 0 3
v -2 0 2
v 2 0 2
v -1 0 1
v 1 0 1
v -1 0 -1
v 1 0 -1
v -2 0 -2
v 2 0 -2
v -3 0 -3
v 3 0 -3
v -4 0 -4
v 4 0 -4
v -5 0 -5
v 5 0 -5
v -4 9 4
v 4 9 4
v -4 9 -4
v 4 9 -4
v -4 19 4
v 4 19 4
v -4 19 -4
v 4 19 -4
v -4 1 4
v 4 1 4
v -3 1 3
v 3 1 3
v -2 1 2
v 2 1 2
v -1 1 1
v 1 1 1
v -1 1 -1
v 1 1 -1
v -2 1 -2
v 2 1 -2
v -3 1 -3
v 3 1 -3
v -4 1 -4
v 4 1 -4
v -4 11 4
v 4 11 4
v -3 11 3
v 3 11 3
v -2 11 2
v 2 11 2
v -1 11 1
v 1 11 1
v -1 11 -1
v 1 11 -1
v -2 11 -2
v 2 11 -2
v -3 11 -3
v 3 11 -3
v -4 11 -4
v 4 11 -4
v -5 20 5
v 5 20 5
v -5 20 -5
v 5 20 -5

# faces
f 3/2/1 2/2/1 1/2/1
f 4/2/1 2/2/1 3/2/1
f 5/2/1 3/2/1 1/2/1
f 5/6/1 4/6/1 3/6/1
f 6/2/1 2/2/1 4/2/1
f 6/6/1 4/6/1 5/6/1
f 7/2/1 5/2/1 1/2/1
f 7/2/1 6/2/1 5/2/1
f 8/2/1 2/2/1 6/2/1
f 8/2/1 6/2/1 7/2/1
f 9/2/1 7/2/1 1/2/1
f 9/6/1 8/6/1 7/6/1
f 10/2/1 2/2/1 8/2/1
f 10/6/1 8/6/1 9/6/1
f 11/2/1 9/2/1 1/2/1
f 11/2/1 10/2/1 9/2/1
f 12/2/1 2/2/1 10/2/1
f 12/2/1 10/2/1 11/2/1
f 15/6/1 14/6/1 13/6/1
f 16/6/1 14/6/1 15/6/1
f 19/6/1 18/6/1 17/6/1
f 20/6/1 18/6/1 19/6/1
f 21/6/2 22/6/2 23/6/2
f 23/6/2 22/6/2 24/6/2
f 25/6/2 26/6/2 27/6/2
f 27/6/2 26/6/2 28/6/2
f 29/2/2 30/2/2 31/2/2
f 31/2/2 30/2/2 32/2/2
f 29/2/2 31/2/2 33/2/2
f 31/6/2 32/6/2 33/6/2
f 32/2/2 30/2/2 34/2/2
f 33/6/2 32/6/2 34/6/2
f 29/2/2 33/2/2 35/2/2
f 33/2/2 34/2/2 35/2/2
f 34/2/2 30/2/2 36/2/2
f 35/2/2 34/2/2 36/2/2
f 29/2/2 35/2/2 37/2/2
f 35/6/2 36/6/2 37/6/2
f 36/2/2 30/2/2 38/2/2
f 37/6/2 36/6/2 38/6/2
f 29/2/2 37/2/2 39/2/2
f 37/2/2 38/2/2 39/2/2
f 38/2/2 30/2/2 40/2/2
f 39/2/2 38/2/2 40/2/2
f 43/2/3 42/2/3 41/2/3
f 44/2/3 42/2/3 43/2/3
f 45/2/3 42/2/3 44/2/3
f 46/2/3 42/2/3 45/2/3
f 47/2/3 43/2/3 41/2/3
f 47/6/3 44/6/3 43/6/3
f 48/2/3 45/2/3 44/2/3
f 48/6/3 44/6/3 47/6/3
f 49/6/3 46/6/3 45/6/3
f 49/2/3 45/2/3 48/2/3
f 50/2/3 42/2/3 46/2/3
f 50/6/3 46/6/3 49/6/3
f 51/2/3 49/2/3 48/2/3
f 51/2/3 48/2/3 47/2/3
f 51/2/3 50/2/3 49/2/3
f 51/2/3 47/2/3 41/2/3
f 52/2/3 42/2/3 50/2/3
f 52/2/3 50/2/3 51/2/3
f 57/6/3 54/6/3 53/6/3
f 58/6/3 54/6/3 57/6/3
f 59/6/3 56/6/3 55/6/3
f 60/6/3 56/6/3 59/6/3
f 61/6/4 62/6/4 65/6/4
f 65/6/4 62/6/4 66/6/4
f 63/6/4 64/6/4 67/6/4
f 67/6/4 64/6/4 68/6/4
f 69/2/4 70/2/4 71/2/4
f 71/2/4 70/2/4 72/2/4
f 72/2/4 70/2/4 73/2/4
f 73/2/4 70/2/4 74/2/4
f 69/2/4 71/2/4 75/2/4
f 71/6/4 72/6/4 75/6/4
f 72/2/4 73/2/4 76/2/4
f 75/6/4 72/6/4 76/6/4
f 73/6/4 74/6/4 77/6/4
f 76/2/4 73/2/4 77/2/4
f 74/2/4 70/2/4 78/2/4
f 77/6/4 74/6/4 78/6/4
f 76/2/4 77/2/4 79/2/4
f 75/2/4 76/2/4 79/2/4
f 77/2/4 78/2/4 79/2/4
f 69/2/4 75/2/4 79/2/4
f 78/2/4 70/2/4 80/2/4
f 79/2/4 78/2/4 80/2/4
f 83/2/5 82/2/5 81/2/5
f 84/2/5 82/2/5 83/2/5
f 85/1/5 84/1/5 83/1/5
f 86/1/5 84/1/5 85/1/5
f 87/3/5 86/3/5 85/3/5
f 88/3/5 86/3/5 87/3/5
f 89/4/5 88/4/5 87/4/5
f 90/4/5 88/4/5 89/4/5
f 91/4/5 89/4/5 87/4/5
f 91/5/5 90/5/5 89/5/5
f 92/4/5 88/4/5 90/4/5
f 92/5/5 90/5/5 91/5/5
f 93/3/5 87/3/5 85/3/5
f 93/4/5 91/4/5 87/4/5
f 93/4/5 92/4/5 91/4/5
f 94/4/5 88/4/5 92/4/5
f 94/4/5 92/4/5 93/4/5
f 94/3/5 86/3/5 88/3/5
f 95/1/5 85/1/5 83/1/5
f 95/3/5 93/3/5 85/3/5
f 95/3/5 94/3/5 93/3/5
f 96/3/5 86/3/5 94/3/5
f 96/3/5 94/3/5 95/3/5
f 96/1/5 84/1/5 86/1/5
f 97/2/5 83/2/5 81/2/5
f 97/1/5 95/1/5 83/1/5
f 97/1/5 96/1/5 95/1/5
f 98/1/5 84/1/5 96/1/5
f 98/1/5 96/1/5 97/1/5
f 98/2/5 82/2/5 84/2/5
f 99/2/5 97/2/5 81/2/5
f 99/2/5 98/2/5 97/2/5
f 100/2/5 82/2/5 98/2/5
f 100/2/5 98/2/5 99/2/5
f 103/2/5 102/2/5 101/2/5
f 104/2/5 102/2/5 103/2/5
f 107/2/5 106/2/5 105/2/5
f 108/2/5 106/2/5 107/2/5
f 109/1/6 110/1/6 111/1/6
f 111/1/6 110/1/6 112/1/6
f 111/3/6 112/3/6 113/3/6
f 113/3/6 112/3/6 114/3/6
f 113/4/6 114/4/6 115/4/6
f 115/4/6 114/4/6 116/4/6
f 113/4/6 115/4/6 117/4/6
f 115/5/6 116/5/6 117/5/6
f 116/4/6 114/4/6 118/4/6
f 117/5/6 116/5/6 118/5/6
f 111/3/6 113/3/6 119/3/6
f 113/4/6 117/4/6 119/4/6
f 117/4/6 118/4/6 119/4/6
f 118/4/6 114/4/6 120/4/6
f 119/4/6 118/4/6 120/4/6
f 114/3/6 112/3/6 120/3/6
f 109/1/6 111/1/6 121/1/6
f 111/3/6 119/3/6 121/3/6
f 119/3/6 120/3/6 121/3/6
f 120/3/6 112/3/6 122/3/6
f 121/3/6 120/3/6 122/3/6
f 112/1/6 110/1/6 122/1/6
f 109/1/6 121/1/6 123/1/6
f 121/1/6 122/1/6 123/1/6
f 122/1/6 110/1/6 124/1/6
f 123/1/6 122/1/6 124/1/6
f 125/1/6 126/1/6 127/1/6
f 127/1/6 126/1/6 128/1/6
f 127/3/6 128/3/6 129/3/6
f 129/3/6 128/3/6 130/3/6
f 129/4/6 130/4/6 131/4/6
f 131/4/6 130/4/6 132/4/6
f 129/4/6 131/4/6 133/4/6
f 131/5/6 132/5/6 133/5/6
f 132/4/6 130/4/6 134/4/6
f 133/5/6 132/5/6 134/5/6
f 127/3/6 129/3/6 135/3/6
f 129/4/6 133/4/6 135/4/6
f 133/4/6 134/4/6 135/4/6
f 134/4/6 130/4/6 136/4/6
f 135/4/6 134/4/6 136/4/6
f 130/3/6 128/3/6 136/3/6
f 125/1/6 127/1/6 137/1/6
f 127/3/6 135/3/6 137/3/6
f 135/3/6 136/3/6 137/3/6
f 136/3/6 128/3/6 138/3/6
f 137/3/6 136/3/6 138/3/6
f 128/1/6 126/1/6 138/1/6
f 125/1/6 137/1/6 139/1/6
f 137/1/6 138/1/6 139/1/6
f 138/1/6 126/1/6 140/1/6
f 139/1/6 138/1/6 140/1/6
f 141/2/6 142/2/6 143/2/6
f 143/2/6 142/2/6 144/2/6
