# MagicaVoxel @ Ephtracy

# group
g Tile_Floor-3

# material
mtllib Tile_Floor-3.mtl
usemtl palette

# normals
vn -1 0 0
vn 1 0 0
vn 0 0 1
vn 0 0 -1
vn 0 -1 0
vn 0 1 0

# texcoords
vt 0.814453 0.5
vt 0.830078 0.5
vt 0.833984 0.5

# verts
v -5 0 5
v -5 0 4
v -5 0 -4
v -5 0 -5
v -5 1 5
v -5 1 4
v -5 1 -4
v -5 1 -5
v 5 0 5
v 5 0 4
v 5 0 -4
v 5 0 -5
v 5 1 5
v 5 1 4
v 5 1 -4
v 5 1 -5
v -5 0 5
v -5 1 5
v -4 0 5
v -4 1 5
v 4 0 5
v 4 1 5
v 5 0 5
v 5 1 5
v -5 0 -5
v -5 1 -5
v -4 0 -5
v -4 1 -5
v 4 0 -5
v 4 1 -5
v 5 0 -5
v 5 1 -5
v -5 0 5
v -4 0 5
v 4 0 5
v 5 0 5
v -5 0 4
v -4 0 4
v 4 0 4
v 5 0 4
v -5 0 -4
v -4 0 -4
v 4 0 -4
v 5 0 -4
v -5 0 -5
v -4 0 -5
v 4 0 -5
v 5 0 -5
v -5 1 5
v -4 1 5
v 4 1 5
v 5 1 5
v -5 1 4
v -4 1 4
v 4 1 4
v 5 1 4
v -5 1 -4
v -4 1 -4
v 4 1 -4
v 5 1 -4
v -5 1 -5
v -4 1 -5
v 4 1 -5
v 5 1 -5

# faces
f 5/3/1 2/3/1 1/3/1
f 6/2/1 3/2/1 2/2/1
f 6/3/1 2/3/1 5/3/1
f 7/3/1 4/3/1 3/3/1
f 7/2/1 3/2/1 6/2/1
f 8/3/1 4/3/1 7/3/1
f 9/3/2 10/3/2 13/3/2
f 10/2/2 11/2/2 14/2/2
f 13/3/2 10/3/2 14/3/2
f 11/3/2 12/3/2 15/3/2
f 14/2/2 11/2/2 15/2/2
f 15/3/2 12/3/2 16/3/2
f 19/3/3 18/3/3 17/3/3
f 20/3/3 18/3/3 19/3/3
f 21/2/3 20/2/3 19/2/3
f 22/2/3 20/2/3 21/2/3
f 23/3/3 22/3/3 21/3/3
f 24/3/3 22/3/3 23/3/3
f 25/3/4 26/3/4 27/3/4
f 27/3/4 26/3/4 28/3/4
f 27/2/4 28/2/4 29/2/4
f 29/2/4 28/2/4 30/2/4
f 29/3/4 30/3/4 31/3/4
f 31/3/4 30/3/4 32/3/4
f 37/3/5 34/3/5 33/3/5
f 38/2/5 35/2/5 34/2/5
f 38/3/5 34/3/5 37/3/5
f 39/3/5 36/3/5 35/3/5
f 39/2/5 35/2/5 38/2/5
f 40/3/5 36/3/5 39/3/5
f 41/2/5 38/2/5 37/2/5
f 42/1/5 39/1/5 38/1/5
f 42/2/5 38/2/5 41/2/5
f 43/2/5 40/2/5 39/2/5
f 43/1/5 39/1/5 42/1/5
f 44/2/5 40/2/5 43/2/5
f 45/3/5 42/3/5 41/3/5
f 46/2/5 43/2/5 42/2/5
f 46/3/5 42/3/5 45/3/5
f 47/3/5 44/3/5 43/3/5
f 47/2/5 43/2/5 46/2/5
f 48/3/5 44/3/5 47/3/5
f 49/3/6 50/3/6 53/3/6
f 50/2/6 51/2/6 54/2/6
f 53/3/6 50/3/6 54/3/6
f 51/3/6 52/3/6 55/3/6
f 54/2/6 51/2/6 55/2/6
f 55/3/6 52/3/6 56/3/6
f 53/2/6 54/2/6 57/2/6
f 54/1/6 55/1/6 58/1/6
f 57/2/6 54/2/6 58/2/6
f 55/2/6 56/2/6 59/2/6
f 58/1/6 55/1/6 59/1/6
f 59/2/6 56/2/6 60/2/6
f 57/3/6 58/3/6 61/3/6
f 58/2/6 59/2/6 62/2/6
f 61/3/6 58/3/6 62/3/6
f 59/3/6 60/3/6 63/3/6
f 62/2/6 59/2/6 63/2/6
f 63/3/6 60/3/6 64/3/6
