# MagicaVoxel @ Ephtracy

# group
g wall_Quadruple

# material
mtllib wall_Quadruple.mtl
usemtl palette

# normals
vn -1 0 0
vn 1 0 0
vn 0 0 1
vn 0 0 -1
vn 0 -1 0
vn 0 1 0

# texcoords
vt 0.814453 0.5
vt 0.818359 0.5
vt 0.822266 0.5
vt 0.826172 0.5

# verts
v -20 0 5
v -20 0 -5
v -20 1 5
v -20 1 -5
v -20 4 5
v -20 4 -5
v -20 5 5
v -20 5 -5
v -20 8 5
v -20 8 -5
v -20 9 5
v -20 9 -5
v -20 12 5
v -20 12 -5
v -20 13 5
v -20 13 -5
v -20 15 5
v -20 15 -5
v -20 16 5
v -20 16 -5
v -20 19 5
v -20 19 -5
v -20 20 5
v -20 20 -5
v 20 0 5
v 20 0 -5
v 20 1 5
v 20 1 -5
v 20 4 5
v 20 4 -5
v 20 5 5
v 20 5 -5
v 20 8 5
v 20 8 -5
v 20 9 5
v 20 9 -5
v 20 12 5
v 20 12 -5
v 20 13 5
v 20 13 -5
v 20 15 5
v 20 15 -5
v 20 16 5
v 20 16 -5
v 20 19 5
v 20 19 -5
v 20 20 5
v 20 20 -5
v -20 0 5
v -20 1 5
v -20 4 5
v -20 5 5
v -20 8 5
v -20 9 5
v -20 12 5
v -20 13 5
v -20 15 5
v -20 16 5
v -20 19 5
v -20 20 5
v -19 1 5
v -19 4 5
v -18 1 5
v -18 4 5
v -18 13 5
v -18 15 5
v -17 13 5
v -17 15 5
v -16 5 5
v -16 8 5
v -15 5 5
v -15 8 5
v -13 1 5
v -13 4 5
v -13 9 5
v -13 12 5
v -13 16 5
v -13 19 5
v -12 1 5
v -12 4 5
v -12 9 5
v -12 12 5
v -12 13 5
v -12 15 5
v -12 16 5
v -12 19 5
v -11 13 5
v -11 15 5
v -9 1 5
v -9 4 5
v -8 1 5
v -8 4 5
v -8 13 5
v -8 15 5
v -7 13 5
v -7 15 5
v -6 5 5
v -6 8 5
v -5 5 5
v -5 8 5
v -3 1 5
v -3 4 5
v -3 9 5
v -3 12 5
v -3 16 5
v -3 19 5
v -2 1 5
v -2 4 5
v -2 9 5
v -2 12 5
v -2 13 5
v -2 15 5
v -2 16 5
v -2 19 5
v -1 13 5
v -1 15 5
v 1 1 5
v 1 4 5
v 2 1 5
v 2 4 5
v 2 13 5
v 2 15 5
v 3 13 5
v 3 15 5
v 4 5 5
v 4 8 5
v 5 5 5
v 5 8 5
v 7 1 5
v 7 4 5
v 7 9 5
v 7 12 5
v 7 16 5
v 7 19 5
v 8 1 5
v 8 4 5
v 8 9 5
v 8 12 5
v 8 13 5
v 8 15 5
v 8 16 5
v 8 19 5
v 9 13 5
v 9 15 5
v 11 1 5
v 11 4 5
v 12 1 5
v 12 4 5
v 12 13 5
v 12 15 5
v 13 13 5
v 13 15 5
v 14 5 5
v 14 8 5
v 15 5 5
v 15 8 5
v 17 1 5
v 17 4 5
v 17 9 5
v 17 12 5
v 17 16 5
v 17 19 5
v 18 1 5
v 18 4 5
v 18 9 5
v 18 12 5
v 18 13 5
v 18 15 5
v 18 16 5
v 18 19 5
v 19 13 5
v 19 15 5
v 20 0 5
v 20 1 5
v 20 4 5
v 20 5 5
v 20 8 5
v 20 9 5
v 20 12 5
v 20 13 5
v 20 15 5
v 20 16 5
v 20 19 5
v 20 20 5
v -20 0 -5
v -20 1 -5
v -20 4 -5
v -20 5 -5
v -20 8 -5
v -20 9 -5
v -20 12 -5
v -20 13 -5
v -20 15 -5
v -20 16 -5
v -20 19 -5
v -20 20 -5
v -19 1 -5
v -19 4 -5
v -19 13 -5
v -19 15 -5
v -18 1 -5
v -18 4 -5
v -18 9 -5
v -18 12 -5
v -18 13 -5
v -18 15 -5
v -17 9 -5
v -17 12 -5
v -17 16 -5
v -17 19 -5
v -16 5 -5
v -16 8 -5
v -16 16 -5
v -16 19 -5
v -15 5 -5
v -15 8 -5
v -14 13 -5
v -14 15 -5
v -13 1 -5
v -13 4 -5
v -13 13 -5
v -13 15 -5
v -12 1 -5
v -12 4 -5
v -9 1 -5
v -9 4 -5
v -9 13 -5
v -9 15 -5
v -8 1 -5
v -8 4 -5
v -8 9 -5
v -8 12 -5
v -8 13 -5
v -8 15 -5
v -7 9 -5
v -7 12 -5
v -7 16 -5
v -7 19 -5
v -6 5 -5
v -6 8 -5
v -6 16 -5
v -6 19 -5
v -5 5 -5
v -5 8 -5
v -4 13 -5
v -4 15 -5
v -3 1 -5
v -3 4 -5
v -3 13 -5
v -3 15 -5
v -2 1 -5
v -2 4 -5
v 1 1 -5
v 1 4 -5
v 1 13 -5
v 1 15 -5
v 2 1 -5
v 2 4 -5
v 2 9 -5
v 2 12 -5
v 2 13 -5
v 2 15 -5
v 3 9 -5
v 3 12 -5
v 3 16 -5
v 3 19 -5
v 4 5 -5
v 4 8 -5
v 4 16 -5
v 4 19 -5
v 5 5 -5
v 5 8 -5
v 6 13 -5
v 6 15 -5
v 7 1 -5
v 7 4 -5
v 7 13 -5
v 7 15 -5
v 8 1 -5
v 8 4 -5
v 11 1 -5
v 11 4 -5
v 11 13 -5
v 11 15 -5
v 12 1 -5
v 12 4 -5
v 12 9 -5
v 12 12 -5
v 12 13 -5
v 12 15 -5
v 13 9 -5
v 13 12 -5
v 13 16 -5
v 13 19 -5
v 14 5 -5
v 14 8 -5
v 14 16 -5
v 14 19 -5
v 15 5 -5
v 15 8 -5
v 16 13 -5
v 16 15 -5
v 17 1 -5
v 17 4 -5
v 17 13 -5
v 17 15 -5
v 18 1 -5
v 18 4 -5
v 20 0 -5
v 20 1 -5
v 20 4 -5
v 20 5 -5
v 20 8 -5
v 20 9 -5
v 20 12 -5
v 20 13 -5
v 20 15 -5
v 20 16 -5
v 20 19 -5
v 20 20 -5
v -20 0 5
v 20 0 5
v -19 0 4
v -11 0 4
v -9 0 4
v -1 0 4
v 1 0 4
v 9 0 4
v 11 0 4
v 19 0 4
v -19 0 -4
v -11 0 -4
v -9 0 -4
v -1 0 -4
v 1 0 -4
v 9 0 -4
v 11 0 -4
v 19 0 -4
v -20 0 -5
v 20 0 -5
v -20 20 5
v 20 20 5
v -20 20 -5
v 20 20 -5

# faces
f 3/2/1 2/2/1 1/2/1
f 4/2/1 2/2/1 3/2/1
f 5/4/1 4/4/1 3/4/1
f 6/4/1 4/4/1 5/4/1
f 7/2/1 6/2/1 5/2/1
f 8/2/1 6/2/1 7/2/1
f 9/4/1 8/4/1 7/4/1
f 10/4/1 8/4/1 9/4/1
f 11/2/1 10/2/1 9/2/1
f 12/2/1 10/2/1 11/2/1
f 13/3/1 12/3/1 11/3/1
f 14/3/1 12/3/1 13/3/1
f 15/2/1 14/2/1 13/2/1
f 16/2/1 14/2/1 15/2/1
f 17/3/1 16/3/1 15/3/1
f 18/3/1 16/3/1 17/3/1
f 19/2/1 18/2/1 17/2/1
f 20/2/1 18/2/1 19/2/1
f 21/1/1 20/1/1 19/1/1
f 22/1/1 20/1/1 21/1/1
f 23/2/1 22/2/1 21/2/1
f 24/2/1 22/2/1 23/2/1
f 25/2/2 26/2/2 27/2/2
f 27/2/2 26/2/2 28/2/2
f 27/4/2 28/4/2 29/4/2
f 29/4/2 28/4/2 30/4/2
f 29/2/2 30/2/2 31/2/2
f 31/2/2 30/2/2 32/2/2
f 31/4/2 32/4/2 33/4/2
f 33/4/2 32/4/2 34/4/2
f 33/2/2 34/2/2 35/2/2
f 35/2/2 34/2/2 36/2/2
f 35/3/2 36/3/2 37/3/2
f 37/3/2 36/3/2 38/3/2
f 37/2/2 38/2/2 39/2/2
f 39/2/2 38/2/2 40/2/2
f 39/3/2 40/3/2 41/3/2
f 41/3/2 40/3/2 42/3/2
f 41/2/2 42/2/2 43/2/2
f 43/2/2 42/2/2 44/2/2
f 43/1/2 44/1/2 45/1/2
f 45/1/2 44/1/2 46/1/2
f 45/2/2 46/2/2 47/2/2
f 47/2/2 46/2/2 48/2/2
f 61/2/3 50/2/3 49/2/3
f 61/4/3 51/4/3 50/4/3
f 62/2/3 52/2/3 51/2/3
f 62/4/3 51/4/3 61/4/3
f 63/2/3 61/2/3 49/2/3
f 63/2/3 62/2/3 61/2/3
f 64/2/3 52/2/3 62/2/3
f 64/2/3 62/2/3 63/2/3
f 65/2/3 56/2/3 55/2/3
f 65/3/3 57/3/3 56/3/3
f 66/2/3 58/2/3 57/2/3
f 66/3/3 57/3/3 65/3/3
f 67/2/3 65/2/3 55/2/3
f 67/2/3 66/2/3 65/2/3
f 68/2/3 58/2/3 66/2/3
f 68/2/3 66/2/3 67/2/3
f 69/4/3 53/4/3 52/4/3
f 69/2/3 52/2/3 64/2/3
f 70/2/3 54/2/3 53/2/3
f 70/4/3 53/4/3 69/4/3
f 71/2/3 69/2/3 64/2/3
f 71/2/3 70/2/3 69/2/3
f 72/2/3 54/2/3 70/2/3
f 72/2/3 70/2/3 71/2/3
f 73/2/3 63/2/3 49/2/3
f 73/1/3 64/1/3 63/1/3
f 74/2/3 71/2/3 64/2/3
f 74/1/3 64/1/3 73/1/3
f 75/2/3 54/2/3 72/2/3
f 75/3/3 55/3/3 54/3/3
f 76/2/3 67/2/3 55/2/3
f 76/3/3 55/3/3 75/3/3
f 77/1/3 59/1/3 58/1/3
f 77/2/3 58/2/3 68/2/3
f 78/2/3 60/2/3 59/2/3
f 78/1/3 59/1/3 77/1/3
f 79/2/3 73/2/3 49/2/3
f 79/2/3 74/2/3 73/2/3
f 80/2/3 71/2/3 74/2/3
f 80/2/3 74/2/3 79/2/3
f 81/2/3 76/2/3 75/2/3
f 81/2/3 75/2/3 72/2/3
f 82/2/3 67/2/3 76/2/3
f 82/2/3 76/2/3 81/2/3
f 83/4/3 68/4/3 67/4/3
f 83/2/3 67/2/3 82/2/3
f 84/2/3 77/2/3 68/2/3
f 84/4/3 68/4/3 83/4/3
f 84/2/3 78/2/3 77/2/3
f 85/2/3 78/2/3 84/2/3
f 86/2/3 60/2/3 78/2/3
f 86/2/3 78/2/3 85/2/3
f 87/2/3 83/2/3 82/2/3
f 87/2/3 85/2/3 84/2/3
f 87/2/3 84/2/3 83/2/3
f 88/2/3 85/2/3 87/2/3
f 89/2/3 79/2/3 49/2/3
f 89/4/3 80/4/3 79/4/3
f 90/2/3 71/2/3 80/2/3
f 90/4/3 80/4/3 89/4/3
f 91/2/3 89/2/3 49/2/3
f 91/2/3 90/2/3 89/2/3
f 92/2/3 71/2/3 90/2/3
f 92/2/3 90/2/3 91/2/3
f 93/3/3 88/3/3 87/3/3
f 93/2/3 87/2/3 82/2/3
f 94/2/3 85/2/3 88/2/3
f 94/3/3 88/3/3 93/3/3
f 95/2/3 93/2/3 82/2/3
f 95/2/3 94/2/3 93/2/3
f 96/2/3 85/2/3 94/2/3
f 96/2/3 94/2/3 95/2/3
f 97/2/3 71/2/3 92/2/3
f 97/4/3 72/4/3 71/4/3
f 98/2/3 81/2/3 72/2/3
f 98/4/3 72/4/3 97/4/3
f 99/2/3 97/2/3 92/2/3
f 99/2/3 98/2/3 97/2/3
f 100/2/3 81/2/3 98/2/3
f 100/2/3 98/2/3 99/2/3
f 101/2/3 91/2/3 49/2/3
f 101/1/3 92/1/3 91/1/3
f 102/2/3 99/2/3 92/2/3
f 102/1/3 92/1/3 101/1/3
f 103/2/3 81/2/3 100/2/3
f 103/3/3 82/3/3 81/3/3
f 104/2/3 95/2/3 82/2/3
f 104/3/3 82/3/3 103/3/3
f 105/1/3 86/1/3 85/1/3
f 105/2/3 85/2/3 96/2/3
f 106/2/3 60/2/3 86/2/3
f 106/1/3 86/1/3 105/1/3
f 107/2/3 101/2/3 49/2/3
f 107/2/3 102/2/3 101/2/3
f 108/2/3 99/2/3 102/2/3
f 108/2/3 102/2/3 107/2/3
f 109/2/3 103/2/3 100/2/3
f 109/2/3 104/2/3 103/2/3
f 110/2/3 95/2/3 104/2/3
f 110/2/3 104/2/3 109/2/3
f 111/4/3 96/4/3 95/4/3
f 111/2/3 95/2/3 110/2/3
f 112/2/3 105/2/3 96/2/3
f 112/4/3 96/4/3 111/4/3
f 112/2/3 106/2/3 105/2/3
f 113/2/3 106/2/3 112/2/3
f 114/2/3 60/2/3 106/2/3
f 114/2/3 106/2/3 113/2/3
f 115/2/3 111/2/3 110/2/3
f 115/2/3 113/2/3 112/2/3
f 115/2/3 112/2/3 111/2/3
f 116/2/3 113/2/3 115/2/3
f 117/2/3 107/2/3 49/2/3
f 117/4/3 108/4/3 107/4/3
f 118/2/3 99/2/3 108/2/3
f 118/4/3 108/4/3 117/4/3
f 119/2/3 117/2/3 49/2/3
f 119/2/3 118/2/3 117/2/3
f 120/2/3 99/2/3 118/2/3
f 120/2/3 118/2/3 119/2/3
f 121/3/3 116/3/3 115/3/3
f 121/2/3 115/2/3 110/2/3
f 122/2/3 113/2/3 116/2/3
f 122/3/3 116/3/3 121/3/3
f 123/2/3 121/2/3 110/2/3
f 123/2/3 122/2/3 121/2/3
f 124/2/3 113/2/3 122/2/3
f 124/2/3 122/2/3 123/2/3
f 125/2/3 99/2/3 120/2/3
f 125/4/3 100/4/3 99/4/3
f 126/2/3 109/2/3 100/2/3
f 126/4/3 100/4/3 125/4/3
f 127/2/3 125/2/3 120/2/3
f 127/2/3 126/2/3 125/2/3
f 128/2/3 109/2/3 126/2/3
f 128/2/3 126/2/3 127/2/3
f 129/2/3 119/2/3 49/2/3
f 129/1/3 120/1/3 119/1/3
f 130/2/3 127/2/3 120/2/3
f 130/1/3 120/1/3 129/1/3
f 131/2/3 109/2/3 128/2/3
f 131/3/3 110/3/3 109/3/3
f 132/2/3 123/2/3 110/2/3
f 132/3/3 110/3/3 131/3/3
f 133/1/3 114/1/3 113/1/3
f 133/2/3 113/2/3 124/2/3
f 134/2/3 60/2/3 114/2/3
f 134/1/3 114/1/3 133/1/3
f 135/2/3 129/2/3 49/2/3
f 135/2/3 130/2/3 129/2/3
f 136/2/3 127/2/3 130/2/3
f 136/2/3 130/2/3 135/2/3
f 137/2/3 131/2/3 128/2/3
f 137/2/3 132/2/3 131/2/3
f 138/2/3 123/2/3 132/2/3
f 138/2/3 132/2/3 137/2/3
f 139/4/3 124/4/3 123/4/3
f 139/2/3 123/2/3 138/2/3
f 140/2/3 133/2/3 124/2/3
f 140/4/3 124/4/3 139/4/3
f 140/2/3 134/2/3 133/2/3
f 141/2/3 134/2/3 140/2/3
f 142/2/3 60/2/3 134/2/3
f 142/2/3 134/2/3 141/2/3
f 143/2/3 139/2/3 138/2/3
f 143/2/3 141/2/3 140/2/3
f 143/2/3 140/2/3 139/2/3
f 144/2/3 141/2/3 143/2/3
f 145/2/3 135/2/3 49/2/3
f 145/4/3 136/4/3 135/4/3
f 146/2/3 127/2/3 136/2/3
f 146/4/3 136/4/3 145/4/3
f 147/2/3 145/2/3 49/2/3
f 147/2/3 146/2/3 145/2/3
f 148/2/3 127/2/3 146/2/3
f 148/2/3 146/2/3 147/2/3
f 149/3/3 144/3/3 143/3/3
f 149/2/3 143/2/3 138/2/3
f 150/2/3 141/2/3 144/2/3
f 150/3/3 144/3/3 149/3/3
f 151/2/3 149/2/3 138/2/3
f 151/2/3 150/2/3 149/2/3
f 152/2/3 141/2/3 150/2/3
f 152/2/3 150/2/3 151/2/3
f 153/2/3 127/2/3 148/2/3
f 153/4/3 128/4/3 127/4/3
f 154/2/3 137/2/3 128/2/3
f 154/4/3 128/4/3 153/4/3
f 155/2/3 153/2/3 148/2/3
f 155/2/3 154/2/3 153/2/3
f 156/2/3 137/2/3 154/2/3
f 156/2/3 154/2/3 155/2/3
f 157/2/3 147/2/3 49/2/3
f 157/1/3 148/1/3 147/1/3
f 158/2/3 155/2/3 148/2/3
f 158/1/3 148/1/3 157/1/3
f 159/2/3 137/2/3 156/2/3
f 159/3/3 138/3/3 137/3/3
f 160/2/3 151/2/3 138/2/3
f 160/3/3 138/3/3 159/3/3
f 161/1/3 142/1/3 141/1/3
f 161/2/3 141/2/3 152/2/3
f 162/2/3 60/2/3 142/2/3
f 162/1/3 142/1/3 161/1/3
f 163/2/3 157/2/3 49/2/3
f 163/2/3 158/2/3 157/2/3
f 164/2/3 155/2/3 158/2/3
f 164/2/3 158/2/3 163/2/3
f 165/2/3 159/2/3 156/2/3
f 165/2/3 160/2/3 159/2/3
f 166/2/3 151/2/3 160/2/3
f 166/2/3 160/2/3 165/2/3
f 167/4/3 152/4/3 151/4/3
f 167/2/3 151/2/3 166/2/3
f 168/2/3 161/2/3 152/2/3
f 168/4/3 152/4/3 167/4/3
f 168/2/3 162/2/3 161/2/3
f 169/2/3 162/2/3 168/2/3
f 170/2/3 60/2/3 162/2/3
f 170/2/3 162/2/3 169/2/3
f 171/2/3 167/2/3 166/2/3
f 171/2/3 169/2/3 168/2/3
f 171/2/3 168/2/3 167/2/3
f 172/2/3 169/2/3 171/2/3
f 173/2/3 163/2/3 49/2/3
f 174/4/3 164/4/3 163/4/3
f 174/2/3 163/2/3 173/2/3
f 175/2/3 155/2/3 164/2/3
f 175/4/3 164/4/3 174/4/3
f 176/4/3 156/4/3 155/4/3
f 176/2/3 155/2/3 175/2/3
f 177/2/3 165/2/3 156/2/3
f 177/4/3 156/4/3 176/4/3
f 178/3/3 166/3/3 165/3/3
f 178/2/3 165/2/3 177/2/3
f 179/2/3 171/2/3 166/2/3
f 179/3/3 166/3/3 178/3/3
f 180/3/3 172/3/3 171/3/3
f 180/2/3 171/2/3 179/2/3
f 181/2/3 169/2/3 172/2/3
f 181/3/3 172/3/3 180/3/3
f 182/1/3 170/1/3 169/1/3
f 182/2/3 169/2/3 181/2/3
f 183/2/3 60/2/3 170/2/3
f 183/1/3 170/1/3 182/1/3
f 184/2/3 60/2/3 183/2/3
f 185/2/4 186/2/4 197/2/4
f 186/4/4 187/4/4 197/4/4
f 187/2/4 188/2/4 198/2/4
f 197/4/4 187/4/4 198/4/4
f 191/2/4 192/2/4 199/2/4
f 192/3/4 193/3/4 199/3/4
f 193/2/4 194/2/4 200/2/4
f 199/3/4 193/3/4 200/3/4
f 185/2/4 197/2/4 201/2/4
f 197/2/4 198/2/4 201/2/4
f 198/2/4 188/2/4 202/2/4
f 201/2/4 198/2/4 202/2/4
f 189/2/4 190/2/4 203/2/4
f 190/3/4 191/3/4 203/3/4
f 199/2/4 200/2/4 204/2/4
f 203/3/4 191/3/4 204/3/4
f 191/2/4 199/2/4 204/2/4
f 204/2/4 200/2/4 205/2/4
f 200/2/4 194/2/4 206/2/4
f 205/2/4 200/2/4 206/2/4
f 204/2/4 205/2/4 207/2/4
f 189/2/4 203/2/4 207/2/4
f 203/2/4 204/2/4 207/2/4
f 207/2/4 205/2/4 208/2/4
f 194/1/4 195/1/4 209/1/4
f 206/2/4 194/2/4 209/2/4
f 195/2/4 196/2/4 210/2/4
f 209/1/4 195/1/4 210/1/4
f 188/4/4 189/4/4 211/4/4
f 202/2/4 188/2/4 211/2/4
f 189/2/4 207/2/4 212/2/4
f 211/4/4 189/4/4 212/4/4
f 206/2/4 209/2/4 213/2/4
f 209/2/4 210/2/4 213/2/4
f 210/2/4 196/2/4 214/2/4
f 213/2/4 210/2/4 214/2/4
f 211/2/4 212/2/4 215/2/4
f 202/2/4 211/2/4 215/2/4
f 212/2/4 207/2/4 216/2/4
f 215/2/4 212/2/4 216/2/4
f 208/2/4 205/2/4 217/2/4
f 205/4/4 206/4/4 217/4/4
f 206/2/4 213/2/4 218/2/4
f 217/4/4 206/4/4 218/4/4
f 201/1/4 202/1/4 219/1/4
f 185/2/4 201/2/4 219/2/4
f 202/2/4 215/2/4 220/2/4
f 219/1/4 202/1/4 220/1/4
f 208/2/4 217/2/4 221/2/4
f 217/2/4 218/2/4 221/2/4
f 218/2/4 213/2/4 222/2/4
f 221/2/4 218/2/4 222/2/4
f 185/2/4 219/2/4 223/2/4
f 219/2/4 220/2/4 223/2/4
f 220/2/4 215/2/4 224/2/4
f 223/2/4 220/2/4 224/2/4
f 185/2/4 223/2/4 225/2/4
f 223/4/4 224/4/4 225/4/4
f 224/2/4 215/2/4 226/2/4
f 225/4/4 224/4/4 226/4/4
f 208/2/4 221/2/4 227/2/4
f 221/3/4 222/3/4 227/3/4
f 222/2/4 213/2/4 228/2/4
f 227/3/4 222/3/4 228/3/4
f 185/2/4 225/2/4 229/2/4
f 225/2/4 226/2/4 229/2/4
f 226/2/4 215/2/4 230/2/4
f 229/2/4 226/2/4 230/2/4
f 216/2/4 207/2/4 231/2/4
f 207/3/4 208/3/4 231/3/4
f 208/2/4 227/2/4 232/2/4
f 231/3/4 208/3/4 232/3/4
f 227/2/4 228/2/4 232/2/4
f 232/2/4 228/2/4 233/2/4
f 228/2/4 213/2/4 234/2/4
f 233/2/4 228/2/4 234/2/4
f 216/2/4 231/2/4 235/2/4
f 232/2/4 233/2/4 235/2/4
f 231/2/4 232/2/4 235/2/4
f 235/2/4 233/2/4 236/2/4
f 234/2/4 213/2/4 237/2/4
f 213/1/4 214/1/4 237/1/4
f 214/2/4 196/2/4 238/2/4
f 237/1/4 214/1/4 238/1/4
f 230/2/4 215/2/4 239/2/4
f 215/4/4 216/4/4 239/4/4
f 216/2/4 235/2/4 240/2/4
f 239/4/4 216/4/4 240/4/4
f 234/2/4 237/2/4 241/2/4
f 237/2/4 238/2/4 241/2/4
f 238/2/4 196/2/4 242/2/4
f 241/2/4 238/2/4 242/2/4
f 239/2/4 240/2/4 243/2/4
f 230/2/4 239/2/4 243/2/4
f 240/2/4 235/2/4 244/2/4
f 243/2/4 240/2/4 244/2/4
f 236/2/4 233/2/4 245/2/4
f 233/4/4 234/4/4 245/4/4
f 234/2/4 241/2/4 246/2/4
f 245/4/4 234/4/4 246/4/4
f 229/1/4 230/1/4 247/1/4
f 185/2/4 229/2/4 247/2/4
f 230/2/4 243/2/4 248/2/4
f 247/1/4 230/1/4 248/1/4
f 236/2/4 245/2/4 249/2/4
f 245/2/4 246/2/4 249/2/4
f 246/2/4 241/2/4 250/2/4
f 249/2/4 246/2/4 250/2/4
f 185/2/4 247/2/4 251/2/4
f 247/2/4 248/2/4 251/2/4
f 248/2/4 243/2/4 252/2/4
f 251/2/4 248/2/4 252/2/4
f 185/2/4 251/2/4 253/2/4
f 251/4/4 252/4/4 253/4/4
f 252/2/4 243/2/4 254/2/4
f 253/4/4 252/4/4 254/4/4
f 236/2/4 249/2/4 255/2/4
f 249/3/4 250/3/4 255/3/4
f 250/2/4 241/2/4 256/2/4
f 255/3/4 250/3/4 256/3/4
f 185/2/4 253/2/4 257/2/4
f 253/2/4 254/2/4 257/2/4
f 254/2/4 243/2/4 258/2/4
f 257/2/4 254/2/4 258/2/4
f 244/2/4 235/2/4 259/2/4
f 235/3/4 236/3/4 259/3/4
f 236/2/4 255/2/4 260/2/4
f 259/3/4 236/3/4 260/3/4
f 255/2/4 256/2/4 260/2/4
f 260/2/4 256/2/4 261/2/4
f 256/2/4 241/2/4 262/2/4
f 261/2/4 256/2/4 262/2/4
f 260/2/4 261/2/4 263/2/4
f 244/2/4 259/2/4 263/2/4
f 259/2/4 260/2/4 263/2/4
f 263/2/4 261/2/4 264/2/4
f 262/2/4 241/2/4 265/2/4
f 241/1/4 242/1/4 265/1/4
f 242/2/4 196/2/4 266/2/4
f 265/1/4 242/1/4 266/1/4
f 258/2/4 243/2/4 267/2/4
f 243/4/4 244/4/4 267/4/4
f 244/2/4 263/2/4 268/2/4
f 267/4/4 244/4/4 268/4/4
f 265/2/4 266/2/4 269/2/4
f 262/2/4 265/2/4 269/2/4
f 266/2/4 196/2/4 270/2/4
f 269/2/4 266/2/4 270/2/4
f 267/2/4 268/2/4 271/2/4
f 258/2/4 267/2/4 271/2/4
f 268/2/4 263/2/4 272/2/4
f 271/2/4 268/2/4 272/2/4
f 264/2/4 261/2/4 273/2/4
f 261/4/4 262/4/4 273/4/4
f 262/2/4 269/2/4 274/2/4
f 273/4/4 262/4/4 274/4/4
f 185/2/4 257/2/4 275/2/4
f 257/1/4 258/1/4 275/1/4
f 258/2/4 271/2/4 276/2/4
f 275/1/4 258/1/4 276/1/4
f 264/2/4 273/2/4 277/2/4
f 273/2/4 274/2/4 277/2/4
f 274/2/4 269/2/4 278/2/4
f 277/2/4 274/2/4 278/2/4
f 185/2/4 275/2/4 279/2/4
f 275/2/4 276/2/4 279/2/4
f 276/2/4 271/2/4 280/2/4
f 279/2/4 276/2/4 280/2/4
f 185/2/4 279/2/4 281/2/4
f 279/4/4 280/4/4 281/4/4
f 280/2/4 271/2/4 282/2/4
f 281/4/4 280/4/4 282/4/4
f 264/2/4 277/2/4 283/2/4
f 277/3/4 278/3/4 283/3/4
f 278/2/4 269/2/4 284/2/4
f 283/3/4 278/3/4 284/3/4
f 185/2/4 281/2/4 285/2/4
f 281/2/4 282/2/4 285/2/4
f 282/2/4 271/2/4 286/2/4
f 285/2/4 282/2/4 286/2/4
f 272/2/4 263/2/4 287/2/4
f 263/3/4 264/3/4 287/3/4
f 264/2/4 283/2/4 288/2/4
f 287/3/4 264/3/4 288/3/4
f 283/2/4 284/2/4 288/2/4
f 288/2/4 284/2/4 289/2/4
f 284/2/4 269/2/4 290/2/4
f 289/2/4 284/2/4 290/2/4
f 288/2/4 289/2/4 291/2/4
f 272/2/4 287/2/4 291/2/4
f 287/2/4 288/2/4 291/2/4
f 291/2/4 289/2/4 292/2/4
f 290/2/4 269/2/4 293/2/4
f 269/1/4 270/1/4 293/1/4
f 270/2/4 196/2/4 294/2/4
f 293/1/4 270/1/4 294/1/4
f 286/2/4 271/2/4 295/2/4
f 271/4/4 272/4/4 295/4/4
f 272/2/4 291/2/4 296/2/4
f 295/4/4 272/4/4 296/4/4
f 293/2/4 294/2/4 297/2/4
f 290/2/4 293/2/4 297/2/4
f 294/2/4 196/2/4 298/2/4
f 297/2/4 294/2/4 298/2/4
f 295/2/4 296/2/4 299/2/4
f 286/2/4 295/2/4 299/2/4
f 296/2/4 291/2/4 300/2/4
f 299/2/4 296/2/4 300/2/4
f 292/2/4 289/2/4 301/2/4
f 289/4/4 290/4/4 301/4/4
f 290/2/4 297/2/4 302/2/4
f 301/4/4 290/4/4 302/4/4
f 185/2/4 285/2/4 303/2/4
f 285/1/4 286/1/4 303/1/4
f 286/2/4 299/2/4 304/2/4
f 303/1/4 286/1/4 304/1/4
f 292/2/4 301/2/4 305/2/4
f 301/2/4 302/2/4 305/2/4
f 302/2/4 297/2/4 306/2/4
f 305/2/4 302/2/4 306/2/4
f 185/2/4 303/2/4 307/2/4
f 303/2/4 304/2/4 307/2/4
f 304/2/4 299/2/4 308/2/4
f 307/2/4 304/2/4 308/2/4
f 185/2/4 307/2/4 309/2/4
f 307/4/4 308/4/4 310/4/4
f 309/2/4 307/2/4 310/2/4
f 308/2/4 299/2/4 311/2/4
f 310/4/4 308/4/4 311/4/4
f 299/4/4 300/4/4 312/4/4
f 311/2/4 299/2/4 312/2/4
f 300/2/4 291/2/4 313/2/4
f 312/4/4 300/4/4 313/4/4
f 291/3/4 292/3/4 314/3/4
f 313/2/4 291/2/4 314/2/4
f 292/2/4 305/2/4 315/2/4
f 314/3/4 292/3/4 315/3/4
f 305/3/4 306/3/4 316/3/4
f 315/2/4 305/2/4 316/2/4
f 306/2/4 297/2/4 317/2/4
f 316/3/4 306/3/4 317/3/4
f 297/1/4 298/1/4 318/1/4
f 317/2/4 297/2/4 318/2/4
f 298/2/4 196/2/4 319/2/4
f 318/1/4 298/1/4 319/1/4
f 319/2/4 196/2/4 320/2/4
f 323/2/5 322/2/5 321/2/5
f 324/2/5 322/2/5 323/2/5
f 325/2/5 322/2/5 324/2/5
f 326/2/5 322/2/5 325/2/5
f 327/2/5 322/2/5 326/2/5
f 328/2/5 322/2/5 327/2/5
f 329/2/5 322/2/5 328/2/5
f 330/2/5 322/2/5 329/2/5
f 331/2/5 323/2/5 321/2/5
f 331/1/5 324/1/5 323/1/5
f 332/2/5 325/2/5 324/2/5
f 332/1/5 324/1/5 331/1/5
f 333/1/5 326/1/5 325/1/5
f 333/2/5 325/2/5 332/2/5
f 334/2/5 327/2/5 326/2/5
f 334/1/5 326/1/5 333/1/5
f 335/1/5 328/1/5 327/1/5
f 335/2/5 327/2/5 334/2/5
f 336/2/5 329/2/5 328/2/5
f 336/1/5 328/1/5 335/1/5
f 337/1/5 330/1/5 329/1/5
f 337/2/5 329/2/5 336/2/5
f 338/2/5 322/2/5 330/2/5
f 338/1/5 330/1/5 337/1/5
f 339/2/5 337/2/5 336/2/5
f 339/2/5 336/2/5 335/2/5
f 339/2/5 338/2/5 337/2/5
f 339/2/5 335/2/5 334/2/5
f 339/2/5 334/2/5 333/2/5
f 339/2/5 333/2/5 332/2/5
f 339/2/5 332/2/5 331/2/5
f 339/2/5 331/2/5 321/2/5
f 340/2/5 322/2/5 338/2/5
f 340/2/5 338/2/5 339/2/5
f 341/2/6 342/2/6 343/2/6
f 343/2/6 342/2/6 344/2/6
