# MagicaVoxel @ Ephtracy

# group
g Wall_Single

# material
mtllib Wall_Single.mtl
usemtl palette

# normals
vn -1 0 0
vn 1 0 0
vn 0 0 1
vn 0 0 -1
vn 0 -1 0
vn 0 1 0

# texcoords
vt 0.814453 0.5
vt 0.818359 0.5
vt 0.822266 0.5
vt 0.826172 0.5

# verts
v -5 0 5
v -5 0 -5
v -5 1 5
v -5 1 -5
v -5 4 5
v -5 4 -5
v -5 5 5
v -5 5 -5
v -5 8 5
v -5 8 -5
v -5 9 5
v -5 9 -5
v -5 12 5
v -5 12 -5
v -5 13 5
v -5 13 -5
v -5 15 5
v -5 15 -5
v -5 16 5
v -5 16 -5
v -5 19 5
v -5 19 -5
v -5 20 5
v -5 20 -5
v 5 0 5
v 5 0 -5
v 5 1 5
v 5 1 -5
v 5 4 5
v 5 4 -5
v 5 5 5
v 5 5 -5
v 5 8 5
v 5 8 -5
v 5 9 5
v 5 9 -5
v 5 12 5
v 5 12 -5
v 5 13 5
v 5 13 -5
v 5 15 5
v 5 15 -5
v 5 16 5
v 5 16 -5
v 5 19 5
v 5 19 -5
v 5 20 5
v 5 20 -5
v -5 0 5
v -5 1 5
v -5 4 5
v -5 5 5
v -5 8 5
v -5 9 5
v -5 12 5
v -5 13 5
v -5 15 5
v -5 16 5
v -5 19 5
v -5 20 5
v -4 1 5
v -4 4 5
v -3 1 5
v -3 4 5
v -3 13 5
v -3 15 5
v -2 13 5
v -2 15 5
v -1 5 5
v -1 8 5
v 0 5 5
v 0 8 5
v 2 1 5
v 2 4 5
v 2 9 5
v 2 12 5
v 2 16 5
v 2 19 5
v 3 1 5
v 3 4 5
v 3 9 5
v 3 12 5
v 3 13 5
v 3 15 5
v 3 16 5
v 3 19 5
v 4 13 5
v 4 15 5
v 5 0 5
v 5 1 5
v 5 4 5
v 5 5 5
v 5 8 5
v 5 9 5
v 5 12 5
v 5 13 5
v 5 15 5
v 5 16 5
v 5 19 5
v 5 20 5
v -5 0 -5
v -5 1 -5
v -5 4 -5
v -5 5 -5
v -5 8 -5
v -5 9 -5
v -5 12 -5
v -5 13 -5
v -5 15 -5
v -5 16 -5
v -5 19 -5
v -5 20 -5
v -4 1 -5
v -4 4 -5
v -4 13 -5
v -4 15 -5
v -3 1 -5
v -3 4 -5
v -3 9 -5
v -3 12 -5
v -3 13 -5
v -3 15 -5
v -2 9 -5
v -2 12 -5
v -2 16 -5
v -2 19 -5
v -1 5 -5
v -1 8 -5
v -1 16 -5
v -1 19 -5
v 0 5 -5
v 0 8 -5
v 1 13 -5
v 1 15 -5
v 2 1 -5
v 2 4 -5
v 2 13 -5
v 2 15 -5
v 3 1 -5
v 3 4 -5
v 5 0 -5
v 5 1 -5
v 5 4 -5
v 5 5 -5
v 5 8 -5
v 5 9 -5
v 5 12 -5
v 5 13 -5
v 5 15 -5
v 5 16 -5
v 5 19 -5
v 5 20 -5
v -5 0 5
v 5 0 5
v -4 0 4
v 4 0 4
v -4 0 -4
v 4 0 -4
v -5 0 -5
v 5 0 -5
v -5 20 5
v 5 20 5
v -5 20 -5
v 5 20 -5

# faces
f 3/2/1 2/2/1 1/2/1
f 4/2/1 2/2/1 3/2/1
f 5/4/1 4/4/1 3/4/1
f 6/4/1 4/4/1 5/4/1
f 7/2/1 6/2/1 5/2/1
f 8/2/1 6/2/1 7/2/1
f 9/4/1 8/4/1 7/4/1
f 10/4/1 8/4/1 9/4/1
f 11/2/1 10/2/1 9/2/1
f 12/2/1 10/2/1 11/2/1
f 13/3/1 12/3/1 11/3/1
f 14/3/1 12/3/1 13/3/1
f 15/2/1 14/2/1 13/2/1
f 16/2/1 14/2/1 15/2/1
f 17/3/1 16/3/1 15/3/1
f 18/3/1 16/3/1 17/3/1
f 19/2/1 18/2/1 17/2/1
f 20/2/1 18/2/1 19/2/1
f 21/1/1 20/1/1 19/1/1
f 22/1/1 20/1/1 21/1/1
f 23/2/1 22/2/1 21/2/1
f 24/2/1 22/2/1 23/2/1
f 25/2/2 26/2/2 27/2/2
f 27/2/2 26/2/2 28/2/2
f 27/4/2 28/4/2 29/4/2
f 29/4/2 28/4/2 30/4/2
f 29/2/2 30/2/2 31/2/2
f 31/2/2 30/2/2 32/2/2
f 31/4/2 32/4/2 33/4/2
f 33/4/2 32/4/2 34/4/2
f 33/2/2 34/2/2 35/2/2
f 35/2/2 34/2/2 36/2/2
f 35/3/2 36/3/2 37/3/2
f 37/3/2 36/3/2 38/3/2
f 37/2/2 38/2/2 39/2/2
f 39/2/2 38/2/2 40/2/2
f 39/3/2 40/3/2 41/3/2
f 41/3/2 40/3/2 42/3/2
f 41/2/2 42/2/2 43/2/2
f 43/2/2 42/2/2 44/2/2
f 43/1/2 44/1/2 45/1/2
f 45/1/2 44/1/2 46/1/2
f 45/2/2 46/2/2 47/2/2
f 47/2/2 46/2/2 48/2/2
f 61/2/3 50/2/3 49/2/3
f 61/4/3 51/4/3 50/4/3
f 62/2/3 52/2/3 51/2/3
f 62/4/3 51/4/3 61/4/3
f 63/2/3 61/2/3 49/2/3
f 63/2/3 62/2/3 61/2/3
f 64/2/3 52/2/3 62/2/3
f 64/2/3 62/2/3 63/2/3
f 65/2/3 56/2/3 55/2/3
f 65/3/3 57/3/3 56/3/3
f 66/2/3 58/2/3 57/2/3
f 66/3/3 57/3/3 65/3/3
f 67/2/3 65/2/3 55/2/3
f 67/2/3 66/2/3 65/2/3
f 68/2/3 58/2/3 66/2/3
f 68/2/3 66/2/3 67/2/3
f 69/4/3 53/4/3 52/4/3
f 69/2/3 52/2/3 64/2/3
f 70/2/3 54/2/3 53/2/3
f 70/4/3 53/4/3 69/4/3
f 71/2/3 69/2/3 64/2/3
f 71/2/3 70/2/3 69/2/3
f 72/2/3 54/2/3 70/2/3
f 72/2/3 70/2/3 71/2/3
f 73/2/3 63/2/3 49/2/3
f 73/1/3 64/1/3 63/1/3
f 74/2/3 71/2/3 64/2/3
f 74/1/3 64/1/3 73/1/3
f 75/2/3 54/2/3 72/2/3
f 75/3/3 55/3/3 54/3/3
f 76/2/3 67/2/3 55/2/3
f 76/3/3 55/3/3 75/3/3
f 77/1/3 59/1/3 58/1/3
f 77/2/3 58/2/3 68/2/3
f 78/2/3 60/2/3 59/2/3
f 78/1/3 59/1/3 77/1/3
f 79/2/3 73/2/3 49/2/3
f 79/2/3 74/2/3 73/2/3
f 80/2/3 71/2/3 74/2/3
f 80/2/3 74/2/3 79/2/3
f 81/2/3 76/2/3 75/2/3
f 81/2/3 75/2/3 72/2/3
f 82/2/3 67/2/3 76/2/3
f 82/2/3 76/2/3 81/2/3
f 83/4/3 68/4/3 67/4/3
f 83/2/3 67/2/3 82/2/3
f 84/2/3 77/2/3 68/2/3
f 84/4/3 68/4/3 83/4/3
f 84/2/3 78/2/3 77/2/3
f 85/2/3 78/2/3 84/2/3
f 86/2/3 60/2/3 78/2/3
f 86/2/3 78/2/3 85/2/3
f 87/2/3 83/2/3 82/2/3
f 87/2/3 85/2/3 84/2/3
f 87/2/3 84/2/3 83/2/3
f 88/2/3 85/2/3 87/2/3
f 89/2/3 79/2/3 49/2/3
f 90/4/3 80/4/3 79/4/3
f 90/2/3 79/2/3 89/2/3
f 91/2/3 71/2/3 80/2/3
f 91/4/3 80/4/3 90/4/3
f 92/4/3 72/4/3 71/4/3
f 92/2/3 71/2/3 91/2/3
f 93/2/3 81/2/3 72/2/3
f 93/4/3 72/4/3 92/4/3
f 94/3/3 82/3/3 81/3/3
f 94/2/3 81/2/3 93/2/3
f 95/2/3 87/2/3 82/2/3
f 95/3/3 82/3/3 94/3/3
f 96/3/3 88/3/3 87/3/3
f 96/2/3 87/2/3 95/2/3
f 97/2/3 85/2/3 88/2/3
f 97/3/3 88/3/3 96/3/3
f 98/1/3 86/1/3 85/1/3
f 98/2/3 85/2/3 97/2/3
f 99/2/3 60/2/3 86/2/3
f 99/1/3 86/1/3 98/1/3
f 100/2/3 60/2/3 99/2/3
f 101/2/4 102/2/4 113/2/4
f 102/4/4 103/4/4 113/4/4
f 103/2/4 104/2/4 114/2/4
f 113/4/4 103/4/4 114/4/4
f 107/2/4 108/2/4 115/2/4
f 108/3/4 109/3/4 115/3/4
f 109/2/4 110/2/4 116/2/4
f 115/3/4 109/3/4 116/3/4
f 101/2/4 113/2/4 117/2/4
f 113/2/4 114/2/4 117/2/4
f 114/2/4 104/2/4 118/2/4
f 117/2/4 114/2/4 118/2/4
f 105/2/4 106/2/4 119/2/4
f 106/3/4 107/3/4 119/3/4
f 115/2/4 116/2/4 120/2/4
f 119/3/4 107/3/4 120/3/4
f 107/2/4 115/2/4 120/2/4
f 120/2/4 116/2/4 121/2/4
f 116/2/4 110/2/4 122/2/4
f 121/2/4 116/2/4 122/2/4
f 120/2/4 121/2/4 123/2/4
f 105/2/4 119/2/4 123/2/4
f 119/2/4 120/2/4 123/2/4
f 123/2/4 121/2/4 124/2/4
f 110/1/4 111/1/4 125/1/4
f 122/2/4 110/2/4 125/2/4
f 111/2/4 112/2/4 126/2/4
f 125/1/4 111/1/4 126/1/4
f 104/4/4 105/4/4 127/4/4
f 118/2/4 104/2/4 127/2/4
f 105/2/4 123/2/4 128/2/4
f 127/4/4 105/4/4 128/4/4
f 122/2/4 125/2/4 129/2/4
f 125/2/4 126/2/4 129/2/4
f 126/2/4 112/2/4 130/2/4
f 129/2/4 126/2/4 130/2/4
f 127/2/4 128/2/4 131/2/4
f 118/2/4 127/2/4 131/2/4
f 128/2/4 123/2/4 132/2/4
f 131/2/4 128/2/4 132/2/4
f 124/2/4 121/2/4 133/2/4
f 121/4/4 122/4/4 133/4/4
f 122/2/4 129/2/4 134/2/4
f 133/4/4 122/4/4 134/4/4
f 117/1/4 118/1/4 135/1/4
f 101/2/4 117/2/4 135/2/4
f 118/2/4 131/2/4 136/2/4
f 135/1/4 118/1/4 136/1/4
f 124/2/4 133/2/4 137/2/4
f 133/2/4 134/2/4 137/2/4
f 134/2/4 129/2/4 138/2/4
f 137/2/4 134/2/4 138/2/4
f 101/2/4 135/2/4 139/2/4
f 135/2/4 136/2/4 139/2/4
f 136/2/4 131/2/4 140/2/4
f 139/2/4 136/2/4 140/2/4
f 101/2/4 139/2/4 141/2/4
f 139/4/4 140/4/4 142/4/4
f 141/2/4 139/2/4 142/2/4
f 140/2/4 131/2/4 143/2/4
f 142/4/4 140/4/4 143/4/4
f 131/4/4 132/4/4 144/4/4
f 143/2/4 131/2/4 144/2/4
f 132/2/4 123/2/4 145/2/4
f 144/4/4 132/4/4 145/4/4
f 123/3/4 124/3/4 146/3/4
f 145/2/4 123/2/4 146/2/4
f 124/2/4 137/2/4 147/2/4
f 146/3/4 124/3/4 147/3/4
f 137/3/4 138/3/4 148/3/4
f 147/2/4 137/2/4 148/2/4
f 138/2/4 129/2/4 149/2/4
f 148/3/4 138/3/4 149/3/4
f 129/1/4 130/1/4 150/1/4
f 149/2/4 129/2/4 150/2/4
f 130/2/4 112/2/4 151/2/4
f 150/1/4 130/1/4 151/1/4
f 151/2/4 112/2/4 152/2/4
f 155/2/5 154/2/5 153/2/5
f 156/2/5 154/2/5 155/2/5
f 157/2/5 155/2/5 153/2/5
f 157/1/5 156/1/5 155/1/5
f 158/2/5 154/2/5 156/2/5
f 158/1/5 156/1/5 157/1/5
f 159/2/5 157/2/5 153/2/5
f 159/2/5 158/2/5 157/2/5
f 160/2/5 154/2/5 158/2/5
f 160/2/5 158/2/5 159/2/5
f 161/2/6 162/2/6 163/2/6
f 163/2/6 162/2/6 164/2/6
