# MagicaVoxel @ Ephtracy

# group
g wall_Double

# material
mtllib wall_Double.mtl
usemtl palette

# normals
vn -1 0 0
vn 1 0 0
vn 0 0 1
vn 0 0 -1
vn 0 -1 0
vn 0 1 0

# texcoords
vt 0.814453 0.5
vt 0.818359 0.5
vt 0.822266 0.5
vt 0.826172 0.5

# verts
v -10 0 5
v -10 0 -5
v -10 1 5
v -10 1 -5
v -10 4 5
v -10 4 -5
v -10 5 5
v -10 5 -5
v -10 8 5
v -10 8 -5
v -10 9 5
v -10 9 -5
v -10 12 5
v -10 12 -5
v -10 13 5
v -10 13 -5
v -10 15 5
v -10 15 -5
v -10 16 5
v -10 16 -5
v -10 19 5
v -10 19 -5
v -10 20 5
v -10 20 -5
v 10 0 5
v 10 0 -5
v 10 1 5
v 10 1 -5
v 10 4 5
v 10 4 -5
v 10 5 5
v 10 5 -5
v 10 8 5
v 10 8 -5
v 10 9 5
v 10 9 -5
v 10 12 5
v 10 12 -5
v 10 13 5
v 10 13 -5
v 10 15 5
v 10 15 -5
v 10 16 5
v 10 16 -5
v 10 19 5
v 10 19 -5
v 10 20 5
v 10 20 -5
v -10 0 5
v -10 1 5
v -10 4 5
v -10 5 5
v -10 8 5
v -10 9 5
v -10 12 5
v -10 13 5
v -10 15 5
v -10 16 5
v -10 19 5
v -10 20 5
v -9 1 5
v -9 4 5
v -8 1 5
v -8 4 5
v -8 13 5
v -8 15 5
v -7 13 5
v -7 15 5
v -6 5 5
v -6 8 5
v -5 5 5
v -5 8 5
v -3 1 5
v -3 4 5
v -3 9 5
v -3 12 5
v -3 16 5
v -3 19 5
v -2 1 5
v -2 4 5
v -2 9 5
v -2 12 5
v -2 13 5
v -2 15 5
v -2 16 5
v -2 19 5
v -1 13 5
v -1 15 5
v 1 1 5
v 1 4 5
v 2 1 5
v 2 4 5
v 2 13 5
v 2 15 5
v 3 13 5
v 3 15 5
v 4 5 5
v 4 8 5
v 5 5 5
v 5 8 5
v 7 1 5
v 7 4 5
v 7 9 5
v 7 12 5
v 7 16 5
v 7 19 5
v 8 1 5
v 8 4 5
v 8 9 5
v 8 12 5
v 8 13 5
v 8 15 5
v 8 16 5
v 8 19 5
v 9 13 5
v 9 15 5
v 10 0 5
v 10 1 5
v 10 4 5
v 10 5 5
v 10 8 5
v 10 9 5
v 10 12 5
v 10 13 5
v 10 15 5
v 10 16 5
v 10 19 5
v 10 20 5
v -10 0 -5
v -10 1 -5
v -10 4 -5
v -10 5 -5
v -10 8 -5
v -10 9 -5
v -10 12 -5
v -10 13 -5
v -10 15 -5
v -10 16 -5
v -10 19 -5
v -10 20 -5
v -9 1 -5
v -9 4 -5
v -9 13 -5
v -9 15 -5
v -8 1 -5
v -8 4 -5
v -8 9 -5
v -8 12 -5
v -8 13 -5
v -8 15 -5
v -7 9 -5
v -7 12 -5
v -7 16 -5
v -7 19 -5
v -6 5 -5
v -6 8 -5
v -6 16 -5
v -6 19 -5
v -5 5 -5
v -5 8 -5
v -4 13 -5
v -4 15 -5
v -3 1 -5
v -3 4 -5
v -3 13 -5
v -3 15 -5
v -2 1 -5
v -2 4 -5
v 1 1 -5
v 1 4 -5
v 1 13 -5
v 1 15 -5
v 2 1 -5
v 2 4 -5
v 2 9 -5
v 2 12 -5
v 2 13 -5
v 2 15 -5
v 3 9 -5
v 3 12 -5
v 3 16 -5
v 3 19 -5
v 4 5 -5
v 4 8 -5
v 4 16 -5
v 4 19 -5
v 5 5 -5
v 5 8 -5
v 6 13 -5
v 6 15 -5
v 7 1 -5
v 7 4 -5
v 7 13 -5
v 7 15 -5
v 8 1 -5
v 8 4 -5
v 10 0 -5
v 10 1 -5
v 10 4 -5
v 10 5 -5
v 10 8 -5
v 10 9 -5
v 10 12 -5
v 10 13 -5
v 10 15 -5
v 10 16 -5
v 10 19 -5
v 10 20 -5
v -10 0 5
v 10 0 5
v -9 0 4
v -1 0 4
v 1 0 4
v 9 0 4
v -9 0 -4
v -1 0 -4
v 1 0 -4
v 9 0 -4
v -10 0 -5
v 10 0 -5
v -10 20 5
v 10 20 5
v -10 20 -5
v 10 20 -5

# faces
f 3/2/1 2/2/1 1/2/1
f 4/2/1 2/2/1 3/2/1
f 5/4/1 4/4/1 3/4/1
f 6/4/1 4/4/1 5/4/1
f 7/2/1 6/2/1 5/2/1
f 8/2/1 6/2/1 7/2/1
f 9/4/1 8/4/1 7/4/1
f 10/4/1 8/4/1 9/4/1
f 11/2/1 10/2/1 9/2/1
f 12/2/1 10/2/1 11/2/1
f 13/3/1 12/3/1 11/3/1
f 14/3/1 12/3/1 13/3/1
f 15/2/1 14/2/1 13/2/1
f 16/2/1 14/2/1 15/2/1
f 17/3/1 16/3/1 15/3/1
f 18/3/1 16/3/1 17/3/1
f 19/2/1 18/2/1 17/2/1
f 20/2/1 18/2/1 19/2/1
f 21/1/1 20/1/1 19/1/1
f 22/1/1 20/1/1 21/1/1
f 23/2/1 22/2/1 21/2/1
f 24/2/1 22/2/1 23/2/1
f 25/2/2 26/2/2 27/2/2
f 27/2/2 26/2/2 28/2/2
f 27/4/2 28/4/2 29/4/2
f 29/4/2 28/4/2 30/4/2
f 29/2/2 30/2/2 31/2/2
f 31/2/2 30/2/2 32/2/2
f 31/4/2 32/4/2 33/4/2
f 33/4/2 32/4/2 34/4/2
f 33/2/2 34/2/2 35/2/2
f 35/2/2 34/2/2 36/2/2
f 35/3/2 36/3/2 37/3/2
f 37/3/2 36/3/2 38/3/2
f 37/2/2 38/2/2 39/2/2
f 39/2/2 38/2/2 40/2/2
f 39/3/2 40/3/2 41/3/2
f 41/3/2 40/3/2 42/3/2
f 41/2/2 42/2/2 43/2/2
f 43/2/2 42/2/2 44/2/2
f 43/1/2 44/1/2 45/1/2
f 45/1/2 44/1/2 46/1/2
f 45/2/2 46/2/2 47/2/2
f 47/2/2 46/2/2 48/2/2
f 61/2/3 50/2/3 49/2/3
f 61/4/3 51/4/3 50/4/3
f 62/2/3 52/2/3 51/2/3
f 62/4/3 51/4/3 61/4/3
f 63/2/3 61/2/3 49/2/3
f 63/2/3 62/2/3 61/2/3
f 64/2/3 52/2/3 62/2/3
f 64/2/3 62/2/3 63/2/3
f 65/2/3 56/2/3 55/2/3
f 65/3/3 57/3/3 56/3/3
f 66/2/3 58/2/3 57/2/3
f 66/3/3 57/3/3 65/3/3
f 67/2/3 65/2/3 55/2/3
f 67/2/3 66/2/3 65/2/3
f 68/2/3 58/2/3 66/2/3
f 68/2/3 66/2/3 67/2/3
f 69/4/3 53/4/3 52/4/3
f 69/2/3 52/2/3 64/2/3
f 70/2/3 54/2/3 53/2/3
f 70/4/3 53/4/3 69/4/3
f 71/2/3 69/2/3 64/2/3
f 71/2/3 70/2/3 69/2/3
f 72/2/3 54/2/3 70/2/3
f 72/2/3 70/2/3 71/2/3
f 73/2/3 63/2/3 49/2/3
f 73/1/3 64/1/3 63/1/3
f 74/2/3 71/2/3 64/2/3
f 74/1/3 64/1/3 73/1/3
f 75/2/3 54/2/3 72/2/3
f 75/3/3 55/3/3 54/3/3
f 76/2/3 67/2/3 55/2/3
f 76/3/3 55/3/3 75/3/3
f 77/1/3 59/1/3 58/1/3
f 77/2/3 58/2/3 68/2/3
f 78/2/3 60/2/3 59/2/3
f 78/1/3 59/1/3 77/1/3
f 79/2/3 73/2/3 49/2/3
f 79/2/3 74/2/3 73/2/3
f 80/2/3 71/2/3 74/2/3
f 80/2/3 74/2/3 79/2/3
f 81/2/3 76/2/3 75/2/3
f 81/2/3 75/2/3 72/2/3
f 82/2/3 67/2/3 76/2/3
f 82/2/3 76/2/3 81/2/3
f 83/4/3 68/4/3 67/4/3
f 83/2/3 67/2/3 82/2/3
f 84/2/3 77/2/3 68/2/3
f 84/4/3 68/4/3 83/4/3
f 84/2/3 78/2/3 77/2/3
f 85/2/3 78/2/3 84/2/3
f 86/2/3 60/2/3 78/2/3
f 86/2/3 78/2/3 85/2/3
f 87/2/3 83/2/3 82/2/3
f 87/2/3 85/2/3 84/2/3
f 87/2/3 84/2/3 83/2/3
f 88/2/3 85/2/3 87/2/3
f 89/2/3 79/2/3 49/2/3
f 89/4/3 80/4/3 79/4/3
f 90/2/3 71/2/3 80/2/3
f 90/4/3 80/4/3 89/4/3
f 91/2/3 89/2/3 49/2/3
f 91/2/3 90/2/3 89/2/3
f 92/2/3 71/2/3 90/2/3
f 92/2/3 90/2/3 91/2/3
f 93/3/3 88/3/3 87/3/3
f 93/2/3 87/2/3 82/2/3
f 94/2/3 85/2/3 88/2/3
f 94/3/3 88/3/3 93/3/3
f 95/2/3 93/2/3 82/2/3
f 95/2/3 94/2/3 93/2/3
f 96/2/3 85/2/3 94/2/3
f 96/2/3 94/2/3 95/2/3
f 97/2/3 71/2/3 92/2/3
f 97/4/3 72/4/3 71/4/3
f 98/2/3 81/2/3 72/2/3
f 98/4/3 72/4/3 97/4/3
f 99/2/3 97/2/3 92/2/3
f 99/2/3 98/2/3 97/2/3
f 100/2/3 81/2/3 98/2/3
f 100/2/3 98/2/3 99/2/3
f 101/2/3 91/2/3 49/2/3
f 101/1/3 92/1/3 91/1/3
f 102/2/3 99/2/3 92/2/3
f 102/1/3 92/1/3 101/1/3
f 103/2/3 81/2/3 100/2/3
f 103/3/3 82/3/3 81/3/3
f 104/2/3 95/2/3 82/2/3
f 104/3/3 82/3/3 103/3/3
f 105/1/3 86/1/3 85/1/3
f 105/2/3 85/2/3 96/2/3
f 106/2/3 60/2/3 86/2/3
f 106/1/3 86/1/3 105/1/3
f 107/2/3 101/2/3 49/2/3
f 107/2/3 102/2/3 101/2/3
f 108/2/3 99/2/3 102/2/3
f 108/2/3 102/2/3 107/2/3
f 109/2/3 103/2/3 100/2/3
f 109/2/3 104/2/3 103/2/3
f 110/2/3 95/2/3 104/2/3
f 110/2/3 104/2/3 109/2/3
f 111/4/3 96/4/3 95/4/3
f 111/2/3 95/2/3 110/2/3
f 112/2/3 105/2/3 96/2/3
f 112/4/3 96/4/3 111/4/3
f 112/2/3 106/2/3 105/2/3
f 113/2/3 106/2/3 112/2/3
f 114/2/3 60/2/3 106/2/3
f 114/2/3 106/2/3 113/2/3
f 115/2/3 111/2/3 110/2/3
f 115/2/3 113/2/3 112/2/3
f 115/2/3 112/2/3 111/2/3
f 116/2/3 113/2/3 115/2/3
f 117/2/3 107/2/3 49/2/3
f 118/4/3 108/4/3 107/4/3
f 118/2/3 107/2/3 117/2/3
f 119/2/3 99/2/3 108/2/3
f 119/4/3 108/4/3 118/4/3
f 120/4/3 100/4/3 99/4/3
f 120/2/3 99/2/3 119/2/3
f 121/2/3 109/2/3 100/2/3
f 121/4/3 100/4/3 120/4/3
f 122/3/3 110/3/3 109/3/3
f 122/2/3 109/2/3 121/2/3
f 123/2/3 115/2/3 110/2/3
f 123/3/3 110/3/3 122/3/3
f 124/3/3 116/3/3 115/3/3
f 124/2/3 115/2/3 123/2/3
f 125/2/3 113/2/3 116/2/3
f 125/3/3 116/3/3 124/3/3
f 126/1/3 114/1/3 113/1/3
f 126/2/3 113/2/3 125/2/3
f 127/2/3 60/2/3 114/2/3
f 127/1/3 114/1/3 126/1/3
f 128/2/3 60/2/3 127/2/3
f 129/2/4 130/2/4 141/2/4
f 130/4/4 131/4/4 141/4/4
f 131/2/4 132/2/4 142/2/4
f 141/4/4 131/4/4 142/4/4
f 135/2/4 136/2/4 143/2/4
f 136/3/4 137/3/4 143/3/4
f 137/2/4 138/2/4 144/2/4
f 143/3/4 137/3/4 144/3/4
f 129/2/4 141/2/4 145/2/4
f 141/2/4 142/2/4 145/2/4
f 142/2/4 132/2/4 146/2/4
f 145/2/4 142/2/4 146/2/4
f 133/2/4 134/2/4 147/2/4
f 134/3/4 135/3/4 147/3/4
f 143/2/4 144/2/4 148/2/4
f 147/3/4 135/3/4 148/3/4
f 135/2/4 143/2/4 148/2/4
f 148/2/4 144/2/4 149/2/4
f 144/2/4 138/2/4 150/2/4
f 149/2/4 144/2/4 150/2/4
f 148/2/4 149/2/4 151/2/4
f 133/2/4 147/2/4 151/2/4
f 147/2/4 148/2/4 151/2/4
f 151/2/4 149/2/4 152/2/4
f 138/1/4 139/1/4 153/1/4
f 150/2/4 138/2/4 153/2/4
f 139/2/4 140/2/4 154/2/4
f 153/1/4 139/1/4 154/1/4
f 132/4/4 133/4/4 155/4/4
f 146/2/4 132/2/4 155/2/4
f 133/2/4 151/2/4 156/2/4
f 155/4/4 133/4/4 156/4/4
f 150/2/4 153/2/4 157/2/4
f 153/2/4 154/2/4 157/2/4
f 154/2/4 140/2/4 158/2/4
f 157/2/4 154/2/4 158/2/4
f 155/2/4 156/2/4 159/2/4
f 146/2/4 155/2/4 159/2/4
f 156/2/4 151/2/4 160/2/4
f 159/2/4 156/2/4 160/2/4
f 152/2/4 149/2/4 161/2/4
f 149/4/4 150/4/4 161/4/4
f 150/2/4 157/2/4 162/2/4
f 161/4/4 150/4/4 162/4/4
f 145/1/4 146/1/4 163/1/4
f 129/2/4 145/2/4 163/2/4
f 146/2/4 159/2/4 164/2/4
f 163/1/4 146/1/4 164/1/4
f 152/2/4 161/2/4 165/2/4
f 161/2/4 162/2/4 165/2/4
f 162/2/4 157/2/4 166/2/4
f 165/2/4 162/2/4 166/2/4
f 129/2/4 163/2/4 167/2/4
f 163/2/4 164/2/4 167/2/4
f 164/2/4 159/2/4 168/2/4
f 167/2/4 164/2/4 168/2/4
f 129/2/4 167/2/4 169/2/4
f 167/4/4 168/4/4 169/4/4
f 168/2/4 159/2/4 170/2/4
f 169/4/4 168/4/4 170/4/4
f 152/2/4 165/2/4 171/2/4
f 165/3/4 166/3/4 171/3/4
f 166/2/4 157/2/4 172/2/4
f 171/3/4 166/3/4 172/3/4
f 129/2/4 169/2/4 173/2/4
f 169/2/4 170/2/4 173/2/4
f 170/2/4 159/2/4 174/2/4
f 173/2/4 170/2/4 174/2/4
f 160/2/4 151/2/4 175/2/4
f 151/3/4 152/3/4 175/3/4
f 152/2/4 171/2/4 176/2/4
f 175/3/4 152/3/4 176/3/4
f 171/2/4 172/2/4 176/2/4
f 176/2/4 172/2/4 177/2/4
f 172/2/4 157/2/4 178/2/4
f 177/2/4 172/2/4 178/2/4
f 160/2/4 175/2/4 179/2/4
f 176/2/4 177/2/4 179/2/4
f 175/2/4 176/2/4 179/2/4
f 179/2/4 177/2/4 180/2/4
f 178/2/4 157/2/4 181/2/4
f 157/1/4 158/1/4 181/1/4
f 158/2/4 140/2/4 182/2/4
f 181/1/4 158/1/4 182/1/4
f 174/2/4 159/2/4 183/2/4
f 159/4/4 160/4/4 183/4/4
f 160/2/4 179/2/4 184/2/4
f 183/4/4 160/4/4 184/4/4
f 178/2/4 181/2/4 185/2/4
f 181/2/4 182/2/4 185/2/4
f 182/2/4 140/2/4 186/2/4
f 185/2/4 182/2/4 186/2/4
f 183/2/4 184/2/4 187/2/4
f 174/2/4 183/2/4 187/2/4
f 184/2/4 179/2/4 188/2/4
f 187/2/4 184/2/4 188/2/4
f 180/2/4 177/2/4 189/2/4
f 177/4/4 178/4/4 189/4/4
f 178/2/4 185/2/4 190/2/4
f 189/4/4 178/4/4 190/4/4
f 173/1/4 174/1/4 191/1/4
f 129/2/4 173/2/4 191/2/4
f 174/2/4 187/2/4 192/2/4
f 191/1/4 174/1/4 192/1/4
f 180/2/4 189/2/4 193/2/4
f 189/2/4 190/2/4 193/2/4
f 190/2/4 185/2/4 194/2/4
f 193/2/4 190/2/4 194/2/4
f 129/2/4 191/2/4 195/2/4
f 191/2/4 192/2/4 195/2/4
f 192/2/4 187/2/4 196/2/4
f 195/2/4 192/2/4 196/2/4
f 129/2/4 195/2/4 197/2/4
f 195/4/4 196/4/4 198/4/4
f 197/2/4 195/2/4 198/2/4
f 196/2/4 187/2/4 199/2/4
f 198/4/4 196/4/4 199/4/4
f 187/4/4 188/4/4 200/4/4
f 199/2/4 187/2/4 200/2/4
f 188/2/4 179/2/4 201/2/4
f 200/4/4 188/4/4 201/4/4
f 179/3/4 180/3/4 202/3/4
f 201/2/4 179/2/4 202/2/4
f 180/2/4 193/2/4 203/2/4
f 202/3/4 180/3/4 203/3/4
f 193/3/4 194/3/4 204/3/4
f 203/2/4 193/2/4 204/2/4
f 194/2/4 185/2/4 205/2/4
f 204/3/4 194/3/4 205/3/4
f 185/1/4 186/1/4 206/1/4
f 205/2/4 185/2/4 206/2/4
f 186/2/4 140/2/4 207/2/4
f 206/1/4 186/1/4 207/1/4
f 207/2/4 140/2/4 208/2/4
f 211/2/5 210/2/5 209/2/5
f 212/2/5 210/2/5 211/2/5
f 213/2/5 210/2/5 212/2/5
f 214/2/5 210/2/5 213/2/5
f 215/2/5 211/2/5 209/2/5
f 215/1/5 212/1/5 211/1/5
f 216/2/5 213/2/5 212/2/5
f 216/1/5 212/1/5 215/1/5
f 217/1/5 214/1/5 213/1/5
f 217/2/5 213/2/5 216/2/5
f 218/2/5 210/2/5 214/2/5
f 218/1/5 214/1/5 217/1/5
f 219/2/5 217/2/5 216/2/5
f 219/2/5 216/2/5 215/2/5
f 219/2/5 218/2/5 217/2/5
f 219/2/5 215/2/5 209/2/5
f 220/2/5 210/2/5 218/2/5
f 220/2/5 218/2/5 219/2/5
f 221/2/6 222/2/6 223/2/6
f 223/2/6 222/2/6 224/2/6
